# xmcd
#
# Track frame offsets:
# 150
# 14630
# 21042
# 37050
# 47010
# 65272
# 71757
# 85830
# 103665
# 120417
# 134377
# 146237
# 152485
# 168060
# 179885
# 197580
# 208420
# 222980
# 230740
# 249102
#
# Disc length: 3555 seconds
#
# Revision: 0
# Processed by: cddbd v1.4PL0 Copyright (c) Steve Scherf et al.
# Submitted via: MacMP3 Pro 5.0 (http://mp3.act2.co.jp/)
#
DISCID=260de114
DTITLE=JAL JETSTREAM BEST COLLECTION - JET STREAM2≈`Íÿ«...‰À«¢«?
DYEAR=1900
DGENRE=
TTITLE0=Íÿ«...‰À«¢«?
TTITLE1=≈w…T…Ï≈E…}…„…R«√…ÏÍl≈x
TTITLE2=…‚…‚…„≈[
TTITLE3=…`…L≈E…`…L≈E…o…Ï≈E…o…Ï
TTITLE4=…„…N…Z…Ï…u…„…NÓÂÈ>
TTITLE5=≈wÛdÍ?«√ÍX≈x
TTITLE6=Ó∏ËÛ«?ÒœËb
TTITLE7=…I≈[≈E…}…C≈E…p…p
TTITLE8=…v…‰…e…B≈E…}≈[…≈…C…h
TTITLE9=…‰…X«√‚ßÁÎ
TTITLE10=…W…b…p≈E…f…B≈E…h…D≈[≈E…_≈[
TTITLE11=≈wÁ?«√«?«»ÔÛÂi≈x
TTITLE12=…E…B≈E…A≈[≈E…I≈[…„≈E…A…Á≈[…Ï
TTITLE13=‚¨‡ß«¢‚'
TTITLE14=…f…B…L…V≈[…‚…Ï…h
TTITLE15=…`…ƒ≈E…`…ƒ≈E…`…F…‰≈[
TTITLE16=…Z≈E…V≈E…{…Ï
TTITLE17=≈wÓÌ«¢‚e≈x
TTITLE18=Ï<pi>‚™Èt«√Ûx«À
TTITLE19=Í∑«√ÈqÈ¡‚√ ≈`A Song for Nana
EXTD=
EXTT0=
EXTT1=
EXTT2=
EXTT3=
EXTT4=
EXTT5=
EXTT6=
EXTT7=
EXTT8=
EXTT9=
EXTT10=
EXTT11=
EXTT12=
EXTT13=
EXTT14=
EXTT15=
EXTT16=
EXTT17=
EXTT18=
EXTT19=
PLAYORDER=
